Raleway-ExtraLight.ufo
<glyph name="numbersign" format="1">
  <advance width="659"/>
  <unicode hex="0023"/>
  <outline>
    <contour>
      <point x="621" y="503" type="line"/>
      <point x="507" y="503" type="line"/>
      <point x="558" y="710" type="line"/>
      <point x="527" y="710" type="line"/>
      <point x="476" y="503" type="line"/>
      <point x="251" y="503" type="line"/>
      <point x="302" y="710" type="line"/>
      <point x="271" y="710" type="line"/>
      <point x="220" y="503" type="line"/>
      <point x="79" y="503" type="line"/>
      <point x="79" y="474" type="line"/>
      <point x="213" y="474" type="line"/>
      <point x="158" y="247" type="line"/>
      <point x="38" y="247" type="line"/>
      <point x="38" y="217" type="line"/>
      <point x="151" y="217" type="line"/>
      <point x="98" y="0" type="line"/>
      <point x="129" y="0" type="line"/>
      <point x="181" y="217" type="line"/>
      <point x="407" y="217" type="line"/>
      <point x="354" y="0" type="line"/>
      <point x="385" y="0" type="line"/>
      <point x="437" y="217" type="line"/>
      <point x="580" y="217" type="line"/>
      <point x="580" y="247" type="line"/>
      <point x="445" y="247" type="line"/>
      <point x="500" y="474" type="line"/>
      <point x="621" y="474" type="line"/>
    </contour>
    <contour>
      <point x="189" y="247" type="line"/>
      <point x="244" y="474" type="line"/>
      <point x="469" y="474" type="line"/>
      <point x="414" y="247" type="line"/>
    </contour>
  </outline>
</glyph>
<glyph name="percent" format="1">
  <advance width="683"/>
  <unicode hex="0025"/>
  <outline>
    <contour>
      <point x="187" y="441" type="curve" smooth="yes"/>
      <point x="265" y="441"/>
      <point x="328" y="503"/>
      <point x="328" y="580" type="curve" smooth="yes"/>
      <point x="328" y="657"/>
      <point x="265" y="720"/>
      <point x="187" y="720" type="curve" smooth="yes"/>
      <point x="109" y="720"/>
      <point x="46" y="657"/>
      <point x="46" y="580" type="curve" smooth="yes"/>
      <point x="46" y="503"/>
      <point x="109" y="441"/>
    </contour>
    <contour>
      <point x="187" y="466" type="curve" smooth="yes"/>
      <point x="126" y="466"/>
      <point x="75" y="517"/>
      <point x="75" y="580" type="curve" smooth="yes"/>
      <point x="75" y="640"/>
      <point x="124" y="694"/>
      <point x="187" y="694" type="curve" smooth="yes"/>
      <point x="246" y="694"/>
      <point x="299" y="644"/>
      <point x="299" y="580" type="curve" smooth="yes"/>
      <point x="299" y="520"/>
      <point x="250" y="466"/>
    </contour>
    <contour>
      <point x="497" y="-10" type="curve" smooth="yes"/>
      <point x="575" y="-10"/>
      <point x="638" y="52"/>
      <point x="638" y="130" type="curve" smooth="yes"/>
      <point x="638" y="207"/>
      <point x="575" y="269"/>
      <point x="497" y="269" type="curve" smooth="yes"/>
      <point x="419" y="269"/>
      <point x="355" y="207"/>
      <point x="355" y="130" type="curve" smooth="yes"/>
      <point x="355" y="52"/>
      <point x="419" y="-10"/>
    </contour>
    <contour>
      <point x="497" y="16" type="curve" smooth="yes"/>
      <point x="435" y="16"/>
      <point x="384" y="66"/>
      <point x="384" y="130" type="curve" smooth="yes"/>
      <point x="384" y="190"/>
      <point x="434" y="244"/>
      <point x="497" y="244" type="curve" smooth="yes"/>
      <point x="556" y="244"/>
      <point x="609" y="192"/>
      <point x="609" y="130" type="curve" smooth="yes"/>
      <point x="609" y="69"/>
      <point x="559" y="16"/>
    </contour>
    <component base="fraction" xOffset="277"/>
  </outline>
</glyph>
<glyph name="ampersand" format="1">
  <advance width="644"/>
  <unicode hex="0026"/>
  <outline>
    <contour>
      <point x="635" y="0" type="line"/>
      <point x="248" y="403" type="line" smooth="yes"/>
      <point x="158" y="497"/>
      <point x="140" y="535"/>
      <point x="140" y="571" type="curve" smooth="yes"/>
      <point x="140" y="636"/>
      <point x="199" y="689"/>
      <point x="277" y="689" type="curve" smooth="yes"/>
      <point x="347" y="689"/>
      <point x="399" y="645"/>
      <point x="399" y="586" type="curve" smooth="yes"/>
      <point x="399" y="517"/>
      <point x="332" y="471"/>
      <point x="230" y="402" type="curve" smooth="yes"/>
      <point x="135" y="338"/>
      <point x="51" y="277"/>
      <point x="51" y="174" type="curve" smooth="yes"/>
      <point x="51" y="57"/>
      <point x="158" y="-10"/>
      <point x="271" y="-10" type="curve" smooth="yes"/>
      <point x="451" y="-10"/>
      <point x="570" y="161"/>
      <point x="570" y="340" type="curve"/>
      <point x="539" y="340" type="line"/>
      <point x="539" y="175"/>
      <point x="434" y="19"/>
      <point x="275" y="19" type="curve" smooth="yes"/>
      <point x="186" y="19"/>
      <point x="85" y="69"/>
      <point x="85" y="172" type="curve" smooth="yes"/>
      <point x="85" y="263"/>
      <point x="162" y="321"/>
      <point x="249" y="380" type="curve" smooth="yes"/>
      <point x="342" y="443"/>
      <point x="431" y="502"/>
      <point x="431" y="588" type="curve" smooth="yes"/>
      <point x="431" y="661"/>
      <point x="366" y="719"/>
      <point x="277" y="719" type="curve" smooth="yes"/>
      <point x="181" y="719"/>
      <point x="107" y="650"/>
      <point x="107" y="571" type="curve" smooth="yes"/>
      <point x="107" y="520"/>
      <point x="138" y="474"/>
      <point x="226" y="382" type="curve" smooth="yes"/>
      <point x="590" y="0" type="line"/>
    </contour>
  </outline>
</glyph>
<glyph name="asterisk" format="1">
  <advance width="308"/>
  <unicode hex="002A"/>
  <outline>
    <contour>
      <point x="112" y="544" type="line"/>
      <point x="154" y="603" type="line"/>
      <point x="195" y="544" type="line"/>
      <point x="217" y="559" type="line"/>
      <point x="174" y="617" type="line"/>
      <point x="241" y="639" type="line"/>
      <point x="234" y="663" type="line"/>
      <point x="166" y="640" type="line"/>
      <point x="166" y="711" type="line"/>
      <point x="141" y="711" type="line"/>
      <point x="141" y="640" type="line"/>
      <point x="74" y="663" type="line"/>
      <point x="66" y="639" type="line"/>
      <point x="134" y="617" type="line"/>
      <point x="92" y="559" type="line"/>
    </contour>
  </outline>
</glyph>
<glyph name="nine" format="1">
  <advance width="581"/>
  <unicode hex="0039"/>
  <outline>
    <contour>
      <point x="37" y="328" type="curve" smooth="yes"/>
      <point x="37" y="463"/>
      <point x="146" y="571"/>
      <point x="284" y="571" type="curve" smooth="yes"/>
      <point x="428" y="571"/>
      <point x="536" y="464"/>
      <point x="536" y="289" type="curve" smooth="yes"/>
      <point x="536" y="-16"/>
      <point x="431" y="-154"/>
      <point x="281" y="-154" type="curve" smooth="yes"/>
      <point x="185" y="-154"/>
      <point x="105" y="-99"/>
      <point x="73" y="-11" type="curve"/>
      <point x="100" y="5" type="line"/>
      <point x="125" y="-71"/>
      <point x="198" y="-122"/>
      <point x="280" y="-122" type="curve" smooth="yes"/>
      <point x="412" y="-122"/>
      <point x="501" y="11"/>
      <point x="501" y="242" type="curve"/>
      <point x="471" y="149"/>
      <point x="381" y="86"/>
      <point x="279" y="86" type="curve" smooth="yes"/>
      <point x="145" y="86"/>
      <point x="37" y="194"/>
    </contour>
    <contour>
      <point x="283" y="539" type="curve" smooth="yes"/>
      <point x="166" y="539"/>
      <point x="70" y="444"/>
      <point x="70" y="329" type="curve" smooth="yes"/>
      <point x="70" y="213"/>
      <point x="168" y="117"/>
      <point x="283" y="117" type="curve" smooth="yes"/>
      <point x="400" y="117"/>
      <point x="497" y="213"/>
      <point x="497" y="328" type="curve" smooth="yes"/>
      <point x="497" y="443"/>
      <point x="399" y="539"/>
    </contour>
  </outline>
</glyph>
<glyph name="A" format="1">
  <advance width="675"/>
  <unicode hex="0041"/>
  <outline>
    <contour>
      <point x="337" y="707" type="move" name="top"/>
    </contour>
    <contour>
      <point x="636" y="7" type="move" name="bottom"/>
    </contour>
    <contour>
      <point x="16" y="0" type="line"/>
      <point x="54" y="0" type="line"/>
      <point x="159" y="245" type="line"/>
      <point x="515" y="245" type="line"/>
      <point x="620" y="0" type="line"/>
      <point x="657" y="0" type="line"/>
      <point x="352" y="710" type="line"/>
      <point x="322" y="710" type="line"/>
    </contour>
    <contour>
      <point x="169" y="275" type="line"/>
      <point x="337" y="666" type="line"/>
      <point x="504" y="275" type="line"/>
    </contour>
  </outline>
</glyph>
<glyph name="G" format="1">
  <advance width="719"/>
  <unicode hex="0047"/>
  <outline>
    <contour>
      <point x="370" y="707" type="move" name="top"/>
    </contour>
    <contour>
      <point x="381" y="0" type="move" name="bottom"/>
    </contour>
    <contour>
      <point x="380" y="-5" type="curve" smooth="yes"/>
      <point x="479" y="-5"/>
      <point x="566" y="40"/>
      <point x="640" y="130" type="curve"/>
      <point x="640" y="172" type="line"/>
      <point x="560" y="72"/>
      <point x="476" y="28"/>
      <point x="382" y="28" type="curve" smooth="yes"/>
      <point x="214" y="28"/>
      <point x="81" y="182"/>
      <point x="81" y="355" type="curve" smooth="yes"/>
      <point x="81" y="517"/>
      <point x="192" y="682"/>
      <point x="370" y="682" type="curve" smooth="yes"/>
      <point x="476" y="682"/>
      <point x="561" y="642"/>
      <point x="613" y="545" type="curve"/>
      <point x="642" y="560" type="line"/>
      <point x="597" y="650"/>
      <point x="516" y="715"/>
      <point x="371" y="715" type="curve" smooth="yes"/>
      <point x="182" y="715"/>
      <point x="46" y="542"/>
      <point x="46" y="355" type="curve" smooth="yes"/>
      <point x="46" y="179"/>
      <point x="185" y="-5"/>
    </contour>
    <contour>
      <point x="628" y="0" type="line"/>
      <point x="660" y="0" type="line"/>
      <point x="660" y="341" type="line"/>
      <point x="464" y="341" type="line"/>
      <point x="464" y="311" type="line"/>
      <point x="628" y="311" type="line"/>
    </contour>
  </outline>
</glyph>
<glyph name="S" format="1">
  <advance width="603"/>
  <unicode hex="0053"/>
  <outline>
    <contour>
      <point x="310" y="727" type="move" name="top"/>
    </contour>
    <contour>
      <point x="310" y="0" type="move" name="bottom"/>
    </contour>
    <contour>
      <point x="527" y="631" type="line"/>
      <point x="470" y="689"/>
      <point x="402" y="715"/>
      <point x="311" y="715" type="curve" smooth="yes"/>
      <point x="161" y="715"/>
      <point x="62" y="646"/>
      <point x="62" y="520" type="curve" smooth="yes"/>
      <point x="62" y="403"/>
      <point x="147" y="371"/>
      <point x="301" y="340" type="curve" smooth="yes"/>
      <point x="459" y="308"/>
      <point x="532" y="274"/>
      <point x="532" y="173" type="curve" smooth="yes"/>
      <point x="532" y="74"/>
      <point x="450" y="25"/>
      <point x="317" y="25" type="curve" smooth="yes"/>
      <point x="209" y="25"/>
      <point x="124" y="60"/>
      <point x="58" y="128" type="curve"/>
      <point x="37" y="103" type="line"/>
      <point x="114" y="30"/>
      <point x="203" y="-5"/>
      <point x="316" y="-5" type="curve" smooth="yes"/>
      <point x="469" y="-5"/>
      <point x="567" y="58"/>
      <point x="567" y="177" type="curve" smooth="yes"/>
      <point x="567" y="303"/>
      <point x="469" y="339"/>
      <point x="313" y="371" type="curve" smooth="yes"/>
      <point x="161" y="402"/>
      <point x="97" y="428"/>
      <point x="97" y="525" type="curve" smooth="yes"/>
      <point x="97" y="621"/>
      <point x="161" y="683"/>
      <point x="312" y="683" type="curve" smooth="yes"/>
      <point x="396" y="683"/>
      <point x="456" y="662"/>
      <point x="508" y="605" type="curve"/>
    </contour>
  </outline>
</glyph>
<glyph name="Y" format="1">
  <advance width="644"/>
  <unicode hex="0059"/>
  <outline>
    <contour>
      <point x="321" y="707" type="move" name="top"/>
    </contour>
    <contour>
      <point x="21" y="710" type="line"/>
      <point x="304" y="274" type="line"/>
      <point x="304" y="0" type="line"/>
      <point x="339" y="0" type="line"/>
      <point x="339" y="272" type="line"/>
      <point x="623" y="710" type="line"/>
      <point x="585" y="710" type="line"/>
      <point x="321" y="307" type="line"/>
      <point x="60" y="710" type="line"/>
    </contour>
  </outline>
</glyph>
<glyph name="asciicircum" format="1">
  <advance width="515"/>
  <unicode hex="005E"/>
  <outline>
    <contour>
      <point x="77" y="303" type="line"/>
      <point x="258" y="671" type="line"/>
      <point x="436" y="303" type="line"/>
      <point x="470" y="303" type="line"/>
      <point x="273" y="710" type="line"/>
      <point x="243" y="710" type="line"/>
      <point x="45" y="303" type="line"/>
    </contour>
  </outline>
</glyph>
<glyph name="b" format="1">
  <advance width="607"/>
  <unicode hex="0062"/>
  <outline>
    <contour>
      <point x="314" y="-10" type="curve" smooth="yes"/>
      <point x="454" y="-10"/>
      <point x="563" y="116"/>
      <point x="563" y="258" type="curve" smooth="yes"/>
      <point x="563" y="389"/>
      <point x="474" y="528"/>
      <point x="323" y="528" type="curve" smooth="yes"/>
      <point x="234" y="528"/>
      <point x="166" y="476"/>
      <point x="115" y="402" type="curve"/>
      <point x="115" y="730" type="line"/>
      <point x="81" y="730" type="line"/>
      <point x="81" y="0" type="line"/>
      <point x="113" y="0" type="line"/>
      <point x="113" y="106" type="line"/>
      <point x="154" y="40"/>
      <point x="232" y="-10"/>
    </contour>
    <contour>
      <point x="309" y="22" type="curve" smooth="yes"/>
      <point x="232" y="22"/>
      <point x="122" y="89"/>
      <point x="115" y="170" type="curve"/>
      <point x="115" y="351" type="line"/>
      <point x="153" y="428"/>
      <point x="224" y="496"/>
      <point x="318" y="496" type="curve" smooth="yes"/>
      <point x="443" y="496"/>
      <point x="529" y="381"/>
      <point x="529" y="258" type="curve" smooth="yes"/>
      <point x="529" y="140"/>
      <point x="437" y="22"/>
    </contour>
  </outline>
</glyph>
<glyph name="f" format="1">
  <advance width="308"/>
  <unicode hex="0066"/>
  <outline>
    <contour>
      <point x="136" y="0" type="line"/>
      <point x="136" y="490" type="line"/>
      <point x="288" y="490" type="line"/>
      <point x="288" y="520" type="line"/>
      <point x="136" y="520" type="line"/>
      <point x="136" y="539" type="line" smooth="yes"/>
      <point x="136" y="649"/>
      <point x="176" y="709"/>
      <point x="248" y="709" type="curve" smooth="yes"/>
      <point x="278" y="709"/>
      <point x="309" y="699"/>
      <point x="326" y="684" type="curve"/>
      <point x="343" y="706" type="line"/>
      <point x="322" y="726"/>
      <point x="283" y="740"/>
      <point x="244" y="740" type="curve" smooth="yes"/>
      <point x="155" y="740"/>
      <point x="102" y="665"/>
      <point x="102" y="539" type="curve" smooth="yes"/>
      <point x="102" y="520" type="line"/>
      <point x="28" y="520" type="line"/>
      <point x="28" y="490" type="line"/>
      <point x="102" y="490" type="line"/>
      <point x="102" y="0" type="line"/>
    </contour>
  </outline>
</glyph>
<glyph name="w" format="1">
  <advance width="800"/>
  <unicode hex="0077"/>
  <outline>
    <contour>
      <point x="400" y="520" type="move" name="top"/>
    </contour>
    <contour>
      <point x="536" y="41" type="line"/>
      <point x="418" y="314" type="line"/>
      <point x="506" y="519" type="line"/>
      <point x="474" y="519" type="line"/>
      <point x="400" y="344" type="line"/>
      <point x="325" y="519" type="line"/>
      <point x="294" y="519" type="line"/>
      <point x="381" y="314" type="line"/>
      <point x="264" y="41" type="line"/>
      <point x="57" y="520" type="line"/>
      <point x="22" y="520" type="line"/>
      <point x="248" y="0" type="line"/>
      <point x="277" y="0" type="line"/>
      <point x="400" y="284" type="line"/>
      <point x="522" y="0" type="line"/>
      <point x="551" y="0" type="line"/>
      <point x="777" y="520" type="line"/>
      <point x="742" y="520" type="line"/>
    </contour>
  </outline>
</glyph>
<glyph name="cent" format="1">
  <advance width="547"/>
  <unicode hex="00A2"/>
  <outline>
    <contour>
      <point x="301" y="-120" type="line"/>
      <point x="301" y="-10" type="line"/>
      <point x="376" y="-10"/>
      <point x="477" y="32"/>
      <point x="505" y="115" type="curve"/>
      <point x="471" y="125" type="line"/>
      <point x="455" y="63"/>
      <point x="362" y="23"/>
      <point x="301" y="22" type="curve"/>
      <point x="301" y="496" type="line"/>
      <point x="370" y="493"/>
      <point x="429" y="463"/>
      <point x="465" y="398" type="curve"/>
      <point x="498" y="410" type="line"/>
      <point x="463" y="478"/>
      <point x="403" y="525"/>
      <point x="301" y="528" type="curve"/>
      <point x="301" y="645" type="line"/>
      <point x="276" y="645" type="line"/>
      <point x="276" y="528" type="line"/>
      <point x="138" y="519"/>
      <point x="45" y="393"/>
      <point x="45" y="258" type="curve" smooth="yes"/>
      <point x="45" y="131"/>
      <point x="141" y="2"/>
      <point x="276" y="-9" type="curve"/>
      <point x="276" y="-120" type="line"/>
    </contour>
    <contour>
      <point x="80" y="258" type="curve" smooth="yes"/>
      <point x="80" y="368"/>
      <point x="151" y="487"/>
      <point x="276" y="495" type="curve"/>
      <point x="276" y="24" type="line"/>
      <point x="164" y="36"/>
      <point x="80" y="142"/>
    </contour>
  </outline>
</glyph>
<glyph name="copyright" format="1">
  <advance width="826"/>
  <unicode hex="00A9"/>
  <outline>
    <contour>
      <point x="413" y="-7" type="curve" smooth="yes"/>
      <point x="621" y="-7"/>
      <point x="776" y="148"/>
      <point x="776" y="355" type="curve" smooth="yes"/>
      <point x="776" y="561"/>
      <point x="621" y="715"/>
      <point x="413" y="715" type="curve" smooth="yes"/>
      <point x="205" y="715"/>
      <point x="50" y="561"/>
      <point x="50" y="355" type="curve" smooth="yes"/>
      <point x="50" y="148"/>
      <point x="205" y="-7"/>
    </contour>
    <contour>
      <point x="414" y="17" type="curve" smooth="yes"/>
      <point x="218" y="17"/>
      <point x="75" y="161"/>
      <point x="75" y="354" type="curve" smooth="yes"/>
      <point x="75" y="548"/>
      <point x="219" y="691"/>
      <point x="414" y="691" type="curve" smooth="yes"/>
      <point x="608" y="691"/>
      <point x="751" y="548"/>
      <point x="751" y="352" type="curve" smooth="yes"/>
      <point x="751" y="153"/>
      <point x="604" y="17"/>
    </contour>
    <contour>
      <point x="420" y="126" type="curve" smooth="yes"/>
      <point x="515" y="126"/>
      <point x="586" y="196"/>
      <point x="598" y="235" type="curve"/>
      <point x="566" y="244" type="line"/>
      <point x="542" y="190"/>
      <point x="472" y="157"/>
      <point x="416" y="157" type="curve" smooth="yes"/>
      <point x="335" y="157"/>
      <point x="231" y="229"/>
      <point x="231" y="355" type="curve" smooth="yes"/>
      <point x="231" y="448"/>
      <point x="288" y="555"/>
      <point x="413" y="555" type="curve" smooth="yes"/>
      <point x="455" y="555"/>
      <point x="527" y="542"/>
      <point x="556" y="473" type="curve"/>
      <point x="589" y="484" type="line"/>
      <point x="562" y="553"/>
      <point x="491" y="587"/>
      <point x="413" y="587" type="curve" smooth="yes"/>
      <point x="263" y="587"/>
      <point x="197" y="463"/>
      <point x="197" y="355" type="curve" smooth="yes"/>
      <point x="197" y="211"/>
      <point x="313" y="126"/>
    </contour>
  </outline>
</glyph>
<glyph name="paragraph" format="1">
  <advance width="576"/>
  <unicode hex="00B6"/>
  <outline>
    <contour>
      <point x="33" y="476" type="curve" smooth="yes"/>
      <point x="33" y="332"/>
      <point x="138" y="246"/>
      <point x="308" y="243" type="curve"/>
      <point x="308" y="-80" type="line"/>
      <point x="340" y="-80" type="line"/>
      <point x="340" y="243" type="line"/>
      <point x="426" y="243" type="line"/>
      <point x="426" y="-80" type="line"/>
      <point x="457" y="-80" type="line"/>
      <point x="457" y="680" type="line"/>
      <point x="527" y="680" type="line"/>
      <point x="527" y="710" type="line"/>
      <point x="315" y="710" type="line" smooth="yes"/>
      <point x="137" y="710"/>
      <point x="33" y="621"/>
    </contour>
    <contour>
      <point x="64" y="477" type="curve" smooth="yes"/>
      <point x="64" y="604"/>
      <point x="150" y="680"/>
      <point x="308" y="680" type="curve"/>
      <point x="308" y="273" type="line"/>
      <point x="176" y="279"/>
      <point x="64" y="336"/>
    </contour>
    <contour>
      <point x="426" y="273" type="line"/>
      <point x="340" y="273" type="line"/>
      <point x="340" y="680" type="line"/>
      <point x="426" y="680" type="line"/>
    </contour>
  </outline>
</glyph>
<glyph name="onesuperior" format="1">
  <advance width="258"/>
  <unicode hex="00B9"/>
  <outline>
    <contour>
      <point x="159" y="444" type="line"/>
      <point x="159" y="811" type="line"/>
      <point x="131" y="811" type="line"/>
      <point x="130" y="808"/>
      <point x="78" y="757"/>
      <point x="35" y="757" type="curve"/>
      <point x="35" y="730" type="line"/>
      <point x="68" y="730"/>
      <point x="117" y="761"/>
      <point x="131" y="778" type="curve"/>
      <point x="131" y="444" type="line"/>
      <point x="49" y="444" type="line"/>
      <point x="49" y="417" type="line"/>
      <point x="236" y="417" type="line"/>
      <point x="236" y="444" type="line"/>
    </contour>
  </outline>
</glyph>
<glyph name="Eth" format="1">
  <advance width="719"/>
  <unicode hex="00D0"/>
  <outline>
    <contour>
      <point x="323" y="342" type="line"/>
      <point x="323" y="372" type="line"/>
      <point x="35" y="372" type="line"/>
      <point x="35" y="342" type="line"/>
    </contour>
    <component base="D" xOffset="7"/>
  </outline>
</glyph>
<glyph name="Thorn" format="1">
  <advance width="600"/>
  <unicode hex="00DE"/>
  <outline>
    <contour>
      <point x="367" y="563" type="curve"/>
      <point x="131" y="563" type="line"/>
      <point x="131" y="710" type="line"/>
      <point x="96" y="710" type="line"/>
      <point x="96" y="0" type="line"/>
      <point x="131" y="0" type="line"/>
      <point x="131" y="127" type="line"/>
      <point x="374" y="127" type="line" smooth="yes"/>
      <point x="491" y="127"/>
      <point x="570" y="233"/>
      <point x="570" y="345" type="curve" smooth="yes"/>
      <point x="570" y="452"/>
      <point x="485" y="563"/>
    </contour>
    <contour>
      <point x="373" y="159" type="curve"/>
      <point x="131" y="159" type="line"/>
      <point x="131" y="530" type="line"/>
      <point x="366" y="530" type="line" smooth="yes"/>
      <point x="460" y="530"/>
      <point x="536" y="442"/>
      <point x="536" y="345" type="curve" smooth="yes"/>
      <point x="536" y="253"/>
      <point x="474" y="159"/>
    </contour>
  </outline>
</glyph>
<glyph name="eth" format="1">
  <advance width="596"/>
  <unicode hex="00F0"/>
  <outline>
    <contour>
      <point x="547" y="255" type="curve" smooth="yes"/>
      <point x="547" y="421"/>
      <point x="508" y="583"/>
      <point x="260" y="730" type="curve"/>
      <point x="211" y="730" type="line"/>
      <point x="443" y="597"/>
      <point x="498" y="465"/>
      <point x="513" y="338" type="curve"/>
      <point x="477" y="418"/>
      <point x="392" y="475"/>
      <point x="293" y="475" type="curve" smooth="yes"/>
      <point x="158" y="475"/>
      <point x="46" y="364"/>
      <point x="46" y="232" type="curve" smooth="yes"/>
      <point x="46" y="100"/>
      <point x="158" y="-10"/>
      <point x="295" y="-10" type="curve" smooth="yes"/>
      <point x="433" y="-10"/>
      <point x="547" y="107"/>
    </contour>
    <contour>
      <point x="81" y="231" type="curve" smooth="yes"/>
      <point x="81" y="347"/>
      <point x="179" y="444"/>
      <point x="297" y="444" type="curve" smooth="yes"/>
      <point x="414" y="444"/>
      <point x="513" y="354"/>
      <point x="513" y="245" type="curve" smooth="yes"/>
      <point x="513" y="125"/>
      <point x="414" y="22"/>
      <point x="295" y="22" type="curve" smooth="yes"/>
      <point x="177" y="22"/>
      <point x="81" y="116"/>
    </contour>
    <contour>
      <point x="464" y="713" type="line"/>
      <point x="363" y="647" type="line"/>
      <point x="353" y="642" type="line"/>
      <point x="229" y="563" type="line"/>
      <point x="243" y="544" type="line"/>
      <point x="369" y="625" type="line"/>
      <point x="380" y="631" type="line"/>
      <point x="478" y="694" type="line"/>
    </contour>
  </outline>
</glyph>
<glyph name="oslash" format="1">
  <advance width="589"/>
  <unicode hex="00F8"/>
  <outline>
    <contour>
      <point x="294" y="-10" type="curve" smooth="yes"/>
      <point x="435" y="-10"/>
      <point x="545" y="113"/>
      <point x="545" y="258" type="curve" smooth="yes"/>
      <point x="545" y="404"/>
      <point x="433" y="528"/>
      <point x="294" y="528" type="curve" smooth="yes"/>
      <point x="156" y="528"/>
      <point x="44" y="404"/>
      <point x="44" y="258" type="curve" smooth="yes"/>
      <point x="44" y="113"/>
      <point x="153" y="-10"/>
    </contour>
    <contour>
      <point x="293" y="22" type="curve" smooth="yes"/>
      <point x="175" y="22"/>
      <point x="78" y="128"/>
      <point x="78" y="257" type="curve" smooth="yes"/>
      <point x="78" y="387"/>
      <point x="177" y="496"/>
      <point x="294" y="496" type="curve" smooth="yes"/>
      <point x="412" y="496"/>
      <point x="510" y="388"/>
      <point x="510" y="259" type="curve" smooth="yes"/>
      <point x="510" y="130"/>
      <point x="412" y="22"/>
    </contour>
    <contour>
      <point x="145" y="0" type="line"/>
      <point x="174" y="43" type="line"/>
      <point x="155" y="60" type="line"/>
      <point x="114" y="0" type="line"/>
    </contour>
    <contour>
      <point x="175" y="45" type="line"/>
      <point x="436" y="459" type="line"/>
      <point x="414" y="474" type="line"/>
      <point x="156" y="61" type="line"/>
    </contour>
    <contour>
      <point x="437" y="460" type="line"/>
      <point x="476" y="520" type="line"/>
      <point x="444" y="520" type="line"/>
      <point x="415" y="475" type="line"/>
    </contour>
  </outline>
</glyph>
<glyph name="thorn" format="1">
  <advance width="603"/>
  <unicode hex="00FE"/>
  <outline>
    <contour>
      <point x="559" y="258" type="curve"/>
      <point x="559" y="387"/>
      <point x="469" y="528"/>
      <point x="317" y="528" type="curve" smooth="yes"/>
      <point x="228" y="528"/>
      <point x="164" y="477"/>
      <point x="116" y="408" type="curve"/>
      <point x="116" y="710" type="line"/>
      <point x="81" y="710" type="line"/>
      <point x="81" y="-213" type="line"/>
      <point x="116" y="-213" type="line"/>
      <point x="116" y="98" type="line"/>
      <point x="153" y="37"/>
      <point x="228" y="-12"/>
      <point x="308" y="-12" type="curve" smooth="yes"/>
      <point x="449" y="-12"/>
      <point x="556" y="116"/>
    </contour>
    <contour>
      <point x="525" y="258" type="curve" smooth="yes"/>
      <point x="525" y="139"/>
      <point x="434" y="21"/>
      <point x="307" y="21" type="curve" smooth="yes"/>
      <point x="230" y="21"/>
      <point x="116" y="91"/>
      <point x="116" y="170" type="curve" smooth="yes"/>
      <point x="116" y="354" type="line"/>
      <point x="153" y="428"/>
      <point x="222" y="496"/>
      <point x="316" y="496" type="curve" smooth="yes"/>
      <point x="440" y="496"/>
      <point x="525" y="381"/>
    </contour>
  </outline>
</glyph>
<glyph name="Dcroat" format="1">
  <advance width="719"/>
  <unicode hex="0110"/>
  <outline>
    <contour>
      <point x="323" y="342" type="line"/>
      <point x="323" y="372" type="line"/>
      <point x="35" y="372" type="line"/>
      <point x="35" y="342" type="line"/>
    </contour>
    <component base="D" xOffset="7"/>
  </outline>
</glyph>
<glyph name="Lslash" format="1">
  <advance width="587"/>
  <unicode hex="0141"/>
  <outline>
    <contour>
      <point x="332" y="499" type="line"/>
      <point x="316" y="521" type="line"/>
      <point x="25" y="246" type="line"/>
      <point x="42" y="223" type="line"/>
    </contour>
    <component base="L" xOffset="7"/>
  </outline>
</glyph>
<glyph name="lslash" format="1">
  <advance width="264"/>
  <unicode hex="0142"/>
  <outline>
    <contour>
      <point x="245" y="498" type="line"/>
      <point x="227" y="519" type="line"/>
      <point x="14" y="321" type="line"/>
      <point x="32" y="300" type="line"/>
    </contour>
    <component base="l" xOffset="15"/>
  </outline>
</glyph>
<glyph name="Tbar" format="1">
  <advance width="640"/>
  <unicode hex="0166"/>
  <outline>
    <contour>
      <point x="573" y="393" type="line"/>
      <point x="573" y="418" type="line"/>
      <point x="67" y="418" type="line"/>
      <point x="67" y="393" type="line"/>
    </contour>
    <component base="T" xOffset="19"/>
  </outline>
</glyph>
<glyph name="Schwa" format="1">
  <advance width="738"/>
  <unicode hex="018F"/>
  <outline>
    <contour>
      <point x="366" y="-9" type="curve" smooth="yes"/>
      <point x="547" y="-9"/>
      <point x="692" y="150"/>
      <point x="692" y="347" type="curve" smooth="yes"/>
      <point x="692" y="549"/>
      <point x="543" y="715"/>
      <point x="361" y="715" type="curve" smooth="yes"/>
      <point x="240" y="715"/>
      <point x="123" y="643"/>
      <point x="83" y="546" type="curve"/>
      <point x="117" y="531" type="line"/>
      <point x="152" y="621"/>
      <point x="254" y="681"/>
      <point x="357" y="681" type="curve" smooth="yes"/>
      <point x="513" y="681"/>
      <point x="641" y="547"/>
      <point x="654" y="368" type="curve"/>
      <point x="32" y="368" type="line"/>
      <point x="32" y="351" type="line" smooth="yes"/>
      <point x="32" y="152"/>
      <point x="177" y="-9"/>
    </contour>
    <contour>
      <point x="364" y="25" type="curve" smooth="yes"/>
      <point x="205" y="25"/>
      <point x="82" y="155"/>
      <point x="70" y="335" type="curve"/>
      <point x="655" y="335" type="line"/>
      <point x="646" y="157"/>
      <point x="522" y="25"/>
    </contour>
  </outline>
</glyph>
<glyph name="schwa" format="1">
  <advance width="579"/>
  <unicode hex="0259"/>
  <outline>
    <contour>
      <point x="286" y="-10" type="curve" smooth="yes"/>
      <point x="427" y="-10"/>
      <point x="535" y="109"/>
      <point x="535" y="255" type="curve" smooth="yes"/>
      <point x="535" y="404"/>
      <point x="423" y="528"/>
      <point x="282" y="528" type="curve" smooth="yes"/>
      <point x="189" y="528"/>
      <point x="101" y="474"/>
      <point x="71" y="402" type="curve"/>
      <point x="102" y="394" type="line"/>
      <point x="130" y="455"/>
      <point x="204" y="498"/>
      <point x="280" y="498" type="curve" smooth="yes"/>
      <point x="395" y="498"/>
      <point x="491" y="401"/>
      <point x="500" y="273" type="curve"/>
      <point x="34" y="273" type="line"/>
      <point x="34" y="272"/>
      <point x="33" y="260"/>
      <point x="33" y="258" type="curve"/>
      <point x="34" y="110"/>
      <point x="145" y="-10"/>
    </contour>
    <contour>
      <point x="286" y="19" type="curve" smooth="yes"/>
      <point x="169" y="19"/>
      <point x="76" y="114"/>
      <point x="68" y="246" type="curve"/>
      <point x="501" y="246" type="line"/>
      <point x="494" y="116"/>
      <point x="403" y="19"/>
    </contour>
  </outline>
</glyph>
<glyph name="ring" format="1">
  <advance width="241"/>
  <unicode hex="02DA"/>
  <outline>
    <contour>
      <point x="120" y="520" type="move" name="_top"/>
    </contour>
    <contour>
      <point x="59" y="671" type="curve" smooth="yes"/>
      <point x="59" y="636"/>
      <point x="85" y="611"/>
      <point x="120" y="611" type="curve" smooth="yes"/>
      <point x="156" y="611"/>
      <point x="182" y="636"/>
      <point x="182" y="671" type="curve" smooth="yes"/>
      <point x="182" y="705"/>
      <point x="156" y="730"/>
      <point x="120" y="730" type="curve" smooth="yes"/>
      <point x="85" y="730"/>
      <point x="59" y="705"/>
    </contour>
    <contour>
      <point x="120" y="711" type="curve" smooth="yes"/>
      <point x="143" y="711"/>
      <point x="161" y="695"/>
      <point x="161" y="671" type="curve" smooth="yes"/>
      <point x="161" y="647"/>
      <point x="141" y="630"/>
      <point x="120" y="630" type="curve" smooth="yes"/>
      <point x="97" y="630"/>
      <point x="80" y="648"/>
      <point x="80" y="671" type="curve" smooth="yes"/>
      <point x="80" y="695"/>
      <point x="98" y="711"/>
    </contour>
  </outline>
</glyph>
<glyph name="uni030F" format="1">
  <advance width="306"/>
  <unicode hex="030F"/>
  <outline>
    <contour>
      <point x="134" y="519" type="move" name="_top"/>
    </contour>
    <contour>
      <point x="236" y="638" type="line"/>
      <point x="258" y="651" type="line"/>
      <point x="196" y="730" type="line"/>
      <point x="154" y="730" type="line"/>
    </contour>
    <contour>
      <point x="129" y="638" type="line"/>
      <point x="151" y="651" type="line"/>
      <point x="89" y="730" type="line"/>
      <point x="46" y="730" type="line"/>
    </contour>
  </outline>
</glyph>
<glyph name="uni0402" format="1">
  <advance width="684"/>
  <unicode hex="0402"/>
  <outline>
    <contour>
      <point x="207" y="0" type="line"/>
      <point x="241" y="0" type="line"/>
      <point x="241" y="333" type="line"/>
      <point x="292" y="384"/>
      <point x="350" y="407"/>
      <point x="421" y="407" type="curve" smooth="yes"/>
      <point x="548" y="407"/>
      <point x="618" y="339"/>
      <point x="618" y="216" type="curve" smooth="yes"/>
      <point x="618" y="91"/>
      <point x="552" y="22"/>
      <point x="434" y="22" type="curve" smooth="yes"/>
      <point x="402" y="22"/>
      <point x="383" y="27"/>
      <point x="345" y="45" type="curve"/>
      <point x="333" y="12" type="line"/>
      <point x="368" y="-5"/>
      <point x="395" y="-10"/>
      <point x="433" y="-10" type="curve" smooth="yes"/>
      <point x="577" y="-10"/>
      <point x="654" y="69"/>
      <point x="654" y="215" type="curve" smooth="yes"/>
      <point x="654" y="361"/>
      <point x="571" y="441"/>
      <point x="425" y="441" type="curve" smooth="yes"/>
      <point x="348" y="441"/>
      <point x="287" y="418"/>
      <point x="241" y="373" type="curve"/>
      <point x="241" y="678" type="line"/>
      <point x="519" y="678" type="line"/>
      <point x="519" y="710" type="line"/>
      <point x="16" y="710" type="line"/>
      <point x="16" y="678" type="line"/>
      <point x="207" y="678" type="line"/>
    </contour>
  </outline>
</glyph>
<glyph name="uni0404" format="1">
  <advance width="698"/>
  <unicode hex="0404"/>
  <outline>
    <contour>
      <point x="632" y="171" type="line"/>
      <point x="579" y="71"/>
      <point x="474" y="27"/>
      <point x="383" y="27" type="curve" smooth="yes"/>
      <point x="215" y="27"/>
      <point x="85" y="176"/>
      <point x="81" y="347" type="curve"/>
      <point x="460" y="347" type="line"/>
      <point x="460" y="379" type="line"/>
      <point x="82" y="379" type="line"/>
      <point x="90" y="529"/>
      <point x="195" y="681"/>
      <point x="380" y="681" type="curve" smooth="yes"/>
      <point x="468" y="681"/>
      <point x="564" y="646"/>
      <point x="616" y="545" type="curve"/>
      <point x="646" y="559" type="line"/>
      <point x="602" y="649"/>
      <point x="513" y="714"/>
      <point x="384" y="714" type="curve" smooth="yes"/>
      <point x="168" y="714"/>
      <point x="46" y="530"/>
      <point x="46" y="360" type="curve" smooth="yes"/>
      <point x="46" y="180"/>
      <point x="182" y="-6"/>
      <point x="379" y="-6" type="curve" smooth="yes"/>
      <point x="492" y="-6"/>
      <point x="614" y="52"/>
      <point x="662" y="159" type="curve"/>
    </contour>
  </outline>
</glyph>
<glyph name="uni040A" format="1">
  <advance width="1038"/>
  <unicode hex="040A"/>
  <outline>
    <contour>
      <point x="97" y="0" type="line"/>
      <point x="131" y="0" type="line"/>
      <point x="131" y="362" type="line"/>
      <point x="537" y="362" type="line"/>
      <point x="537" y="0" type="line"/>
      <point x="571" y="0" type="line"/>
      <point x="571" y="710" type="line"/>
      <point x="537" y="710" type="line"/>
      <point x="537" y="394" type="line"/>
      <point x="131" y="394" type="line"/>
      <point x="131" y="710" type="line"/>
      <point x="97" y="710" type="line"/>
    </contour>
    <contour>
      <point x="549" y="0" type="line"/>
      <point x="793" y="0" type="line" smooth="yes"/>
      <point x="933" y="0"/>
      <point x="1008" y="89"/>
      <point x="1008" y="201" type="curve" smooth="yes"/>
      <point x="1008" y="316"/>
      <point x="935" y="394"/>
      <point x="791" y="394" type="curve" smooth="yes"/>
      <point x="549" y="394" type="line"/>
    </contour>
    <contour>
      <point x="571" y="32" type="line"/>
      <point x="571" y="362" type="line"/>
      <point x="791" y="362" type="line" smooth="yes"/>
      <point x="931" y="362"/>
      <point x="974" y="287"/>
      <point x="974" y="201" type="curve" smooth="yes"/>
      <point x="974" y="113"/>
      <point x="922" y="32"/>
      <point x="793" y="32" type="curve" smooth="yes"/>
    </contour>
  </outline>
</glyph>
<glyph name="uni0419" format="1">
  <advance width="747"/>
  <unicode hex="0419"/>
  <outline>
    <contour>
      <point x="482" y="916" type="line"/>
      <point x="481" y="879"/>
      <point x="434" y="854"/>
      <point x="370" y="854" type="curve" smooth="yes"/>
      <point x="304" y="854"/>
      <point x="258" y="885"/>
      <point x="258" y="916" type="curve"/>
      <point x="232" y="916" type="line"/>
      <point x="232" y="868"/>
      <point x="278" y="831"/>
      <point x="370" y="831" type="curve" smooth="yes"/>
      <point x="461" y="831"/>
      <point x="507" y="868"/>
      <point x="507" y="916" type="curve"/>
    </contour>
    <component base="uni0418"/>
  </outline>
</glyph>
<glyph name="uni0426" format="1">
  <advance width="704"/>
  <unicode hex="0426"/>
  <outline>
    <contour>
      <point x="558" y="710" type="line"/>
      <point x="558" y="32" type="line"/>
      <point x="131" y="32" type="line"/>
      <point x="131" y="710" type="line"/>
      <point x="97" y="710" type="line"/>
      <point x="97" y="0" type="line"/>
      <point x="592" y="0" type="line"/>
      <point x="592" y="710" type="line"/>
    </contour>
    <contour>
      <point x="646" y="-185" type="line"/>
      <point x="678" y="-185" type="line"/>
      <point x="678" y="32" type="line"/>
      <point x="565" y="32" type="line"/>
      <point x="565" y="0" type="line"/>
      <point x="646" y="0" type="line"/>
    </contour>
  </outline>
</glyph>
<glyph name="uni042C" format="1">
  <advance width="580"/>
  <unicode hex="042C"/>
  <outline>
    <contour>
      <point x="131" y="0" type="line"/>
      <point x="131" y="710" type="line"/>
      <point x="97" y="710" type="line"/>
      <point x="97" y="0" type="line"/>
    </contour>
    <contour>
      <point x="109" y="0" type="line"/>
      <point x="327" y="0" type="line" smooth="yes"/>
      <point x="471" y="0"/>
      <point x="549" y="94"/>
      <point x="549" y="212" type="curve" smooth="yes"/>
      <point x="549" y="338"/>
      <point x="473" y="424"/>
      <point x="325" y="424" type="curve" smooth="yes"/>
      <point x="109" y="424" type="line"/>
    </contour>
    <contour>
      <point x="131" y="392" type="line"/>
      <point x="325" y="392" type="line" smooth="yes"/>
      <point x="469" y="392"/>
      <point x="514" y="308"/>
      <point x="514" y="212" type="curve" smooth="yes"/>
      <point x="514" y="118"/>
      <point x="460" y="32"/>
      <point x="327" y="32" type="curve" smooth="yes"/>
      <point x="131" y="32" type="line"/>
    </contour>
  </outline>
</glyph>
<glyph name="uni0431" format="1">
  <advance width="565"/>
  <unicode hex="0431"/>
  <outline>
    <contour>
      <point x="487" y="710" type="line"/>
      <point x="480" y="741" type="line"/>
      <point x="340" y="711" type="line" smooth="yes"/>
      <point x="175" y="675"/>
      <point x="61" y="558"/>
      <point x="61" y="270" type="curve" smooth="yes"/>
      <point x="61" y="101"/>
      <point x="138" y="-10"/>
      <point x="281" y="-10" type="curve" smooth="yes"/>
      <point x="432" y="-10"/>
      <point x="516" y="96"/>
      <point x="516" y="241" type="curve" smooth="yes"/>
      <point x="516" y="396"/>
      <point x="433" y="490"/>
      <point x="293" y="490" type="curve" smooth="yes"/>
      <point x="195" y="490"/>
      <point x="132" y="442"/>
      <point x="98" y="365" type="curve"/>
      <point x="113" y="550"/>
      <point x="202" y="648"/>
      <point x="340" y="678" type="curve" smooth="yes"/>
    </contour>
    <contour>
      <point x="97" y="241" type="curve" smooth="yes"/>
      <point x="97" y="381"/>
      <point x="177" y="457"/>
      <point x="288" y="457" type="curve" smooth="yes"/>
      <point x="412" y="457"/>
      <point x="482" y="379"/>
      <point x="482" y="242" type="curve" smooth="yes"/>
      <point x="482" y="118"/>
      <point x="411" y="21"/>
      <point x="287" y="21" type="curve" smooth="yes"/>
      <point x="164" y="21"/>
      <point x="97" y="116"/>
    </contour>
  </outline>
</glyph>
<glyph name="uni0432" format="1">
  <advance width="515"/>
  <unicode hex="0432"/>
  <outline>
    <contour>
      <point x="82" y="520" type="line"/>
      <point x="82" y="0" type="line"/>
      <point x="330" y="0" type="line" smooth="yes"/>
      <point x="407" y="0"/>
      <point x="469" y="61"/>
      <point x="469" y="137" type="curve" smooth="yes"/>
      <point x="469" y="198"/>
      <point x="432" y="251"/>
      <point x="372" y="267" type="curve"/>
      <point x="420" y="289"/>
      <point x="448" y="340"/>
      <point x="448" y="391" type="curve" smooth="yes"/>
      <point x="448" y="456"/>
      <point x="399" y="520"/>
      <point x="324" y="520" type="curve" smooth="yes"/>
    </contour>
    <contour>
      <point x="116" y="277" type="line"/>
      <point x="116" y="491" type="line"/>
      <point x="317" y="491" type="line" smooth="yes"/>
      <point x="376" y="491"/>
      <point x="413" y="443"/>
      <point x="413" y="387" type="curve" smooth="yes"/>
      <point x="413" y="331"/>
      <point x="372" y="277"/>
      <point x="312" y="277" type="curve" smooth="yes"/>
    </contour>
    <contour>
      <point x="116" y="28" type="line"/>
      <point x="116" y="248" type="line"/>
      <point x="332" y="248" type="line" smooth="yes"/>
      <point x="392" y="248"/>
      <point x="436" y="196"/>
      <point x="436" y="139" type="curve" smooth="yes"/>
      <point x="436" y="83"/>
      <point x="389" y="28"/>
      <point x="328" y="28" type="curve" smooth="yes"/>
    </contour>
  </outline>
</glyph>
<glyph name="uni0436" format="1">
  <advance width="738"/>
  <unicode hex="0436"/>
  <outline>
    <contour>
      <point x="37" y="520" type="line"/>
      <point x="195" y="270" type="line"/>
      <point x="15" y="0" type="line"/>
      <point x="55" y="0" type="line"/>
      <point x="221" y="253" type="line"/>
      <point x="352" y="253" type="line"/>
      <point x="352" y="0" type="line"/>
      <point x="387" y="0" type="line"/>
      <point x="387" y="253" type="line"/>
      <point x="518" y="253" type="line"/>
      <point x="683" y="0" type="line"/>
      <point x="723" y="0" type="line"/>
      <point x="542" y="270" type="line"/>
      <point x="701" y="520" type="line"/>
      <point x="661" y="520" type="line"/>
      <point x="515" y="282" type="line"/>
      <point x="387" y="282" type="line"/>
      <point x="387" y="520" type="line"/>
      <point x="352" y="520" type="line"/>
      <point x="352" y="282" type="line"/>
      <point x="224" y="282" type="line"/>
      <point x="77" y="520" type="line"/>
    </contour>
  </outline>
</glyph>
<glyph name="uni043B" format="1">
  <advance width="515"/>
  <unicode hex="043B"/>
  <outline>
    <contour>
      <point x="13" y="-1" type="line"/>
      <point x="97" y="0"/>
      <point x="148" y="83"/>
      <point x="179" y="370" type="curve" smooth="yes"/>
      <point x="192" y="490" type="line"/>
      <point x="399" y="490" type="line"/>
      <point x="399" y="0" type="line"/>
      <point x="433" y="0" type="line"/>
      <point x="433" y="520" type="line"/>
      <point x="160" y="520" type="line"/>
      <point x="146" y="386" type="line" smooth="yes"/>
      <point x="116" y="103"/>
      <point x="69" y="32"/>
      <point x="10" y="31" type="curve"/>
    </contour>
  </outline>
</glyph>
<glyph name="uni043C" format="1">
  <advance width="679"/>
  <unicode hex="043C"/>
  <outline>
    <contour>
      <point x="114" y="520" type="line"/>
      <point x="82" y="520" type="line"/>
      <point x="82" y="0" type="line"/>
      <point x="115" y="0" type="line"/>
      <point x="115" y="455" type="line"/>
      <point x="329" y="91" type="line"/>
      <point x="351" y="91" type="line"/>
      <point x="564" y="455" type="line"/>
      <point x="564" y="0" type="line"/>
      <point x="597" y="0" type="line"/>
      <point x="597" y="520" type="line"/>
      <point x="566" y="520" type="line"/>
      <point x="340" y="134" type="line"/>
    </contour>
  </outline>
</glyph>
<glyph name="uni0447" format="1">
  <advance width="474"/>
  <unicode hex="0447"/>
  <outline>
    <contour>
      <point x="393" y="520" type="line"/>
      <point x="358" y="520" type="line"/>
      <point x="358" y="268" type="line"/>
      <point x="329" y="249"/>
      <point x="273" y="234"/>
      <point x="215" y="234" type="curve" smooth="yes"/>
      <point x="122" y="234"/>
      <point x="79" y="280"/>
      <point x="79" y="391" type="curve" smooth="yes"/>
      <point x="79" y="520" type="line"/>
      <point x="46" y="520" type="line"/>
      <point x="46" y="386" type="line" smooth="yes"/>
      <point x="46" y="267"/>
      <point x="94" y="204"/>
      <point x="215" y="204" type="curve" smooth="yes"/>
      <point x="271" y="204"/>
      <point x="316" y="213"/>
      <point x="358" y="233" type="curve"/>
      <point x="358" y="0" type="line"/>
      <point x="393" y="0" type="line"/>
    </contour>
  </outline>
</glyph>
<glyph name="endash" format="1">
  <advance width="549"/>
  <unicode hex="2013"/>
  <outline>
    <contour>
      <point x="481" y="255" type="line"/>
      <point x="481" y="288" type="line"/>
      <point x="68" y="288" type="line"/>
      <point x="68" y="255" type="line"/>
    </contour>
  </outline>
</glyph>
<glyph name="bullet" format="1">
  <advance width="343"/>
  <unicode hex="2022"/>
  <outline>
    <contour>
      <point x="253" y="344" type="curve" smooth="yes"/>
      <point x="253" y="388"/>
      <point x="217" y="425"/>
      <point x="172" y="425" type="curve" smooth="yes"/>
      <point x="127" y="425"/>
      <point x="90" y="388"/>
      <point x="90" y="344" type="curve" smooth="yes"/>
      <point x="90" y="298"/>
      <point x="127" y="262"/>
      <point x="172" y="262" type="curve" smooth="yes"/>
      <point x="217" y="262"/>
      <point x="253" y="298"/>
    </contour>
  </outline>
</glyph>
<glyph name="perthousand" format="1">
  <advance width="1015"/>
  <unicode hex="2030"/>
  <outline>
    <contour>
      <point x="193" y="441" type="curve" smooth="yes"/>
      <point x="271" y="441"/>
      <point x="334" y="503"/>
      <point x="334" y="580" type="curve" smooth="yes"/>
      <point x="334" y="657"/>
      <point x="271" y="720"/>
      <point x="193" y="720" type="curve" smooth="yes"/>
      <point x="115" y="720"/>
      <point x="52" y="657"/>
      <point x="52" y="580" type="curve" smooth="yes"/>
      <point x="52" y="503"/>
      <point x="115" y="441"/>
    </contour>
    <contour>
      <point x="193" y="466" type="curve" smooth="yes"/>
      <point x="132" y="466"/>
      <point x="81" y="517"/>
      <point x="81" y="580" type="curve" smooth="yes"/>
      <point x="81" y="640"/>
      <point x="130" y="694"/>
      <point x="193" y="694" type="curve" smooth="yes"/>
      <point x="252" y="694"/>
      <point x="305" y="644"/>
      <point x="305" y="580" type="curve" smooth="yes"/>
      <point x="305" y="520"/>
      <point x="256" y="466"/>
    </contour>
    <contour>
      <point x="503" y="-10" type="curve" smooth="yes"/>
      <point x="581" y="-10"/>
      <point x="644" y="52"/>
      <point x="644" y="130" type="curve" smooth="yes"/>
      <point x="644" y="207"/>
      <point x="581" y="269"/>
      <point x="503" y="269" type="curve" smooth="yes"/>
      <point x="425" y="269"/>
      <point x="361" y="207"/>
      <point x="361" y="130" type="curve" smooth="yes"/>
      <point x="361" y="52"/>
      <point x="425" y="-10"/>
    </contour>
    <contour>
      <point x="503" y="16" type="curve" smooth="yes"/>
      <point x="441" y="16"/>
      <point x="390" y="66"/>
      <point x="390" y="130" type="curve" smooth="yes"/>
      <point x="390" y="190"/>
      <point x="440" y="244"/>
      <point x="503" y="244" type="curve" smooth="yes"/>
      <point x="562" y="244"/>
      <point x="615" y="192"/>
      <point x="615" y="130" type="curve" smooth="yes"/>
      <point x="615" y="69"/>
      <point x="565" y="16"/>
    </contour>
    <contour>
      <point x="840" y="-10" type="curve" smooth="yes"/>
      <point x="918" y="-10"/>
      <point x="981" y="52"/>
      <point x="981" y="130" type="curve" smooth="yes"/>
      <point x="981" y="207"/>
      <point x="918" y="269"/>
      <point x="840" y="269" type="curve" smooth="yes"/>
      <point x="762" y="269"/>
      <point x="699" y="207"/>
      <point x="699" y="130" type="curve" smooth="yes"/>
      <point x="699" y="52"/>
      <point x="762" y="-10"/>
    </contour>
    <contour>
      <point x="840" y="16" type="curve" smooth="yes"/>
      <point x="778" y="16"/>
      <point x="728" y="66"/>
      <point x="728" y="130" type="curve" smooth="yes"/>
      <point x="728" y="190"/>
      <point x="777" y="244"/>
      <point x="840" y="244" type="curve" smooth="yes"/>
      <point x="899" y="244"/>
      <point x="952" y="192"/>
      <point x="952" y="130" type="curve" smooth="yes"/>
      <point x="952" y="69"/>
      <point x="903" y="16"/>
    </contour>
    <component base="fraction" xOffset="283"/>
  </outline>
</glyph>
<glyph name="seveninferior" format="1">
  <advance width="337"/>
  <unicode hex="2087"/>
  <outline>
    <contour>
      <point x="67" y="-80" type="line"/>
      <point x="99" y="-80" type="line"/>
      <point x="326" y="308" type="line"/>
      <point x="27" y="308" type="line"/>
      <point x="27" y="281" type="line"/>
      <point x="283" y="281" type="line"/>
    </contour>
  </outline>
</glyph>
<glyph name="eightinferior" format="1">
  <advance width="387"/>
  <unicode hex="2088"/>
  <outline>
    <contour>
      <point x="345" y="25" type="curve" smooth="yes"/>
      <point x="345" y="76"/>
      <point x="303" y="113"/>
      <point x="248" y="128" type="curve"/>
      <point x="292" y="142"/>
      <point x="329" y="171"/>
      <point x="329" y="212" type="curve" smooth="yes"/>
      <point x="329" y="273"/>
      <point x="260" y="308"/>
      <point x="193" y="308" type="curve" smooth="yes"/>
      <point x="127" y="308"/>
      <point x="57" y="273"/>
      <point x="57" y="212" type="curve" smooth="yes"/>
      <point x="57" y="171"/>
      <point x="94" y="142"/>
      <point x="137" y="128" type="curve"/>
      <point x="90" y="115"/>
      <point x="41" y="79"/>
      <point x="41" y="27" type="curve" smooth="yes"/>
      <point x="41" y="-32"/>
      <point x="101" y="-84"/>
      <point x="191" y="-84" type="curve" smooth="yes"/>
      <point x="274" y="-84"/>
      <point x="345" y="-41"/>
    </contour>
    <contour>
      <point x="318" y="28" type="curve" smooth="yes"/>
      <point x="318" y="-25"/>
      <point x="254" y="-59"/>
      <point x="193" y="-59" type="curve" smooth="yes"/>
      <point x="136" y="-59"/>
      <point x="68" y="-27"/>
      <point x="68" y="27" type="curve" smooth="yes"/>
      <point x="68" y="81"/>
      <point x="132" y="116"/>
      <point x="192" y="116" type="curve" smooth="yes"/>
      <point x="250" y="116"/>
      <point x="318" y="84"/>
    </contour>
    <contour>
      <point x="84" y="210" type="curve" smooth="yes"/>
      <point x="84" y="255"/>
      <point x="136" y="283"/>
      <point x="192" y="283" type="curve" smooth="yes"/>
      <point x="248" y="283"/>
      <point x="302" y="256"/>
      <point x="302" y="211" type="curve" smooth="yes"/>
      <point x="302" y="166"/>
      <point x="243" y="139"/>
      <point x="192" y="139" type="curve" smooth="yes"/>
      <point x="143" y="139"/>
      <point x="84" y="165"/>
    </contour>
  </outline>
</glyph>
<glyph name="nineinferior" format="1">
  <advance width="394"/>
  <unicode hex="2089"/>
  <outline>
    <contour>
      <point x="35" y="178" type="curve" smooth="yes"/>
      <point x="35" y="252"/>
      <point x="104" y="311"/>
      <point x="191" y="311" type="curve" smooth="yes"/>
      <point x="283" y="311"/>
      <point x="351" y="251"/>
      <point x="351" y="152" type="curve" smooth="yes"/>
      <point x="351" y="-10"/>
      <point x="285" y="-85"/>
      <point x="188" y="-85" type="curve" smooth="yes"/>
      <point x="129" y="-85"/>
      <point x="78" y="-57"/>
      <point x="58" y="-10" type="curve"/>
      <point x="77" y="5" type="line"/>
      <point x="93" y="-34"/>
      <point x="138" y="-60"/>
      <point x="189" y="-60" type="curve" smooth="yes"/>
      <point x="269" y="-60"/>
      <point x="324" y="7"/>
      <point x="324" y="124" type="curve"/>
      <point x="305" y="77"/>
      <point x="249" y="46"/>
      <point x="188" y="46" type="curve" smooth="yes"/>
      <point x="103" y="46"/>
      <point x="35" y="105"/>
    </contour>
    <contour>
      <point x="190" y="286" type="curve" smooth="yes"/>
      <point x="120" y="286"/>
      <point x="62" y="237"/>
      <point x="62" y="179" type="curve" smooth="yes"/>
      <point x="62" y="120"/>
      <point x="121" y="70"/>
      <point x="191" y="70" type="curve" smooth="yes"/>
      <point x="262" y="70"/>
      <point x="321" y="120"/>
      <point x="321" y="178" type="curve" smooth="yes"/>
      <point x="321" y="236"/>
      <point x="261" y="286"/>
    </contour>
  </outline>
</glyph>
<glyph name="uni20B9" format="1">
  <advance width="429"/>
  <unicode hex="20B9"/>
  <outline>
    <contour>
      <point x="45" y="678" type="line"/>
      <point x="117" y="678" type="line" smooth="yes"/>
      <point x="210" y="678"/>
      <point x="286" y="589"/>
      <point x="286" y="493" type="curve" smooth="yes"/>
      <point x="286" y="399"/>
      <point x="224" y="306"/>
      <point x="124" y="306" type="curve" smooth="yes"/>
      <point x="88" y="306" type="line"/>
      <point x="285" y="0" type="line"/>
      <point x="325" y="0" type="line"/>
      <point x="146" y="278" type="line"/>
      <point x="250" y="289"/>
      <point x="321" y="385"/>
      <point x="321" y="493" type="curve" smooth="yes"/>
      <point x="321" y="600"/>
      <point x="236" y="710"/>
      <point x="118" y="710" type="curve" smooth="yes"/>
      <point x="45" y="710" type="line"/>
    </contour>
    <contour>
      <point x="390" y="614" type="line"/>
      <point x="45" y="614" type="line"/>
      <point x="45" y="587" type="line"/>
      <point x="390" y="587" type="line"/>
    </contour>
    <contour>
      <point x="390" y="710" type="line"/>
      <point x="45" y="710" type="line"/>
      <point x="45" y="683" type="line"/>
      <point x="390" y="683" type="line"/>
    </contour>
  </outline>
</glyph>
<glyph name="uni2113" format="1">
  <advance width="276"/>
  <unicode hex="2113"/>
  <outline>
    <contour>
      <point x="94" y="313" type="line"/>
      <point x="160" y="379"/>
      <point x="223" y="522"/>
      <point x="223" y="604" type="curve" smooth="yes"/>
      <point x="223" y="672"/>
      <point x="204" y="710"/>
      <point x="169" y="710" type="curve" smooth="yes"/>
      <point x="135" y="710"/>
      <point x="111" y="669"/>
      <point x="111" y="610" type="curve" smooth="yes"/>
      <point x="111" y="88" type="line" smooth="yes"/>
      <point x="111" y="49"/>
      <point x="137" y="25"/>
      <point x="178" y="25" type="curve" smooth="yes"/>
      <point x="195" y="25"/>
      <point x="217" y="32"/>
      <point x="236" y="40" type="curve"/>
      <point x="245" y="12" type="line"/>
      <point x="221" y="2"/>
      <point x="192" y="-5"/>
      <point x="166" y="-5" type="curve" smooth="yes"/>
      <point x="111" y="-5"/>
      <point x="79" y="27"/>
      <point x="79" y="90" type="curve" smooth="yes"/>
      <point x="79" y="610" type="line" smooth="yes"/>
      <point x="79" y="684"/>
      <point x="117" y="740"/>
      <point x="168" y="740" type="curve" smooth="yes"/>
      <point x="219" y="740"/>
      <point x="254" y="687"/>
      <point x="254" y="610" type="curve" smooth="yes"/>
      <point x="254" y="501"/>
      <point x="178" y="352"/>
      <point x="97" y="277" type="curve"/>
    </contour>
  </outline>
</glyph>
<glyph name="Omega" format="1">
  <advance width="768"/>
  <unicode hex="2126"/>
  <outline>
    <contour>
      <point x="48" y="0" type="line"/>
      <point x="337" y="0" type="line"/>
      <point x="337" y="33" type="line"/>
      <point x="177" y="68"/>
      <point x="89" y="226"/>
      <point x="89" y="365" type="curve" smooth="yes"/>
      <point x="89" y="522"/>
      <point x="202" y="681"/>
      <point x="384" y="681" type="curve" smooth="yes"/>
      <point x="566" y="681"/>
      <point x="679" y="522"/>
      <point x="679" y="365" type="curve" smooth="yes"/>
      <point x="679" y="226"/>
      <point x="591" y="68"/>
      <point x="431" y="33" type="curve"/>
      <point x="431" y="0" type="line"/>
      <point x="720" y="0" type="line"/>
      <point x="720" y="33" type="line"/>
      <point x="509" y="33" type="line"/>
      <point x="637" y="93"/>
      <point x="714" y="223"/>
      <point x="714" y="365" type="curve" smooth="yes"/>
      <point x="714" y="549"/>
      <point x="574" y="715"/>
      <point x="384" y="715" type="curve" smooth="yes"/>
      <point x="194" y="715"/>
      <point x="54" y="549"/>
      <point x="54" y="365" type="curve" smooth="yes"/>
      <point x="54" y="223"/>
      <point x="131" y="93"/>
      <point x="259" y="33" type="curve"/>
      <point x="48" y="33" type="line"/>
    </contour>
  </outline>
</glyph>
<glyph name="uni2215" format="1">
  <advance width="569"/>
  <unicode hex="2215"/>
  <outline>
    <contour>
      <point x="16" y="-2" type="line"/>
      <point x="576" y="693" type="line"/>
      <point x="552" y="712" type="line"/>
      <point x="-7" y="17" type="line"/>
    </contour>
  </outline>
</glyph>
<glyph name="infinity" format="1">
  <advance width="699"/>
  <unicode hex="221E"/>
  <outline>
    <contour>
      <point x="201" y="517" type="curve" smooth="yes"/>
      <point x="115" y="517"/>
      <point x="49" y="443"/>
      <point x="49" y="352" type="curve" smooth="yes"/>
      <point x="49" y="261"/>
      <point x="117" y="186"/>
      <point x="201" y="186" type="curve" smooth="yes"/>
      <point x="283" y="186"/>
      <point x="323" y="244"/>
      <point x="351" y="309" type="curve"/>
      <point x="381" y="244"/>
      <point x="420" y="186"/>
      <point x="496" y="186" type="curve" smooth="yes"/>
      <point x="583" y="186"/>
      <point x="648" y="260"/>
      <point x="648" y="351" type="curve" smooth="yes"/>
      <point x="648" y="442"/>
      <point x="590" y="517"/>
      <point x="497" y="517" type="curve" smooth="yes"/>
      <point x="417" y="517"/>
      <point x="380" y="459"/>
      <point x="349" y="393" type="curve"/>
      <point x="319" y="459"/>
      <point x="280" y="517"/>
    </contour>
    <contour>
      <point x="201" y="216" type="curve" smooth="yes"/>
      <point x="143" y="216"/>
      <point x="80" y="263"/>
      <point x="80" y="352" type="curve" smooth="yes"/>
      <point x="80" y="443"/>
      <point x="143" y="487"/>
      <point x="201" y="487" type="curve" smooth="yes"/>
      <point x="271" y="487"/>
      <point x="306" y="424"/>
      <point x="336" y="350" type="curve"/>
      <point x="306" y="278"/>
      <point x="270" y="216"/>
    </contour>
    <contour>
      <point x="497" y="216" type="curve" smooth="yes"/>
      <point x="429" y="216"/>
      <point x="394" y="276"/>
      <point x="364" y="346" type="curve"/>
      <point x="393" y="421"/>
      <point x="425" y="486"/>
      <point x="497" y="486" type="curve" smooth="yes"/>
      <point x="555" y="486"/>
      <point x="618" y="443"/>
      <point x="618" y="352" type="curve" smooth="yes"/>
      <point x="618" y="263"/>
      <point x="555" y="216"/>
    </contour>
  </outline>
</glyph>
<glyph name="greaterequal" format="1">
  <advance width="449"/>
  <unicode hex="2265"/>
  <outline>
    <contour>
      <point x="377" y="78" type="line"/>
      <point x="377" y="109" type="line"/>
      <point x="71" y="109" type="line"/>
      <point x="71" y="78" type="line"/>
    </contour>
    <contour>
      <point x="378" y="370" type="line"/>
      <point x="79" y="522" type="line"/>
      <point x="79" y="487" type="line"/>
      <point x="328" y="359" type="line"/>
      <point x="79" y="230" type="line"/>
      <point x="79" y="194" type="line"/>
      <point x="378" y="346" type="line"/>
    </contour>
  </outline>
</glyph>
<glyph name="G.sc" format="1">
  <advance width="618"/>
  <outline>
    <contour>
      <point x="372" y="707" type="move" name="top"/>
    </contour>
    <contour>
      <point x="384" y="0" type="move" name="bottom"/>
    </contour>
    <contour>
      <point x="325" y="-4" type="curve" smooth="yes"/>
      <point x="406" y="-4"/>
      <point x="476" y="29"/>
      <point x="537" y="97" type="curve"/>
      <point x="537" y="134" type="line"/>
      <point x="472" y="60"/>
      <point x="403" y="27"/>
      <point x="327" y="27" type="curve" smooth="yes"/>
      <point x="190" y="27"/>
      <point x="82" y="141"/>
      <point x="82" y="271" type="curve" smooth="yes"/>
      <point x="82" y="393"/>
      <point x="173" y="516"/>
      <point x="317" y="516" type="curve" smooth="yes"/>
      <point x="403" y="516"/>
      <point x="473" y="485"/>
      <point x="514" y="412" type="curve"/>
      <point x="542" y="428" type="line"/>
      <point x="505" y="496"/>
      <point x="437" y="545"/>
      <point x="318" y="545" type="curve" smooth="yes"/>
      <point x="161" y="545"/>
      <point x="50" y="414"/>
      <point x="50" y="272" type="curve" smooth="yes"/>
      <point x="50" y="136"/>
      <point x="164" y="-4"/>
    </contour>
    <contour>
      <point x="527" y="0" type="line"/>
      <point x="557" y="0" type="line"/>
      <point x="557" y="262" type="line"/>
      <point x="392" y="262" type="line"/>
      <point x="392" y="234" type="line"/>
      <point x="527" y="234" type="line"/>
    </contour>
  </outline>
</glyph>
<glyph name="a.alt" format="1">
  <advance width="611"/>
  <outline>
    <contour>
      <point x="291" y="-10" type="curve" smooth="yes"/>
      <point x="380" y="-10"/>
      <point x="454" y="42"/>
      <point x="496" y="115" type="curve"/>
      <point x="496" y="0" type="line"/>
      <point x="530" y="0" type="line"/>
      <point x="530" y="517" type="line"/>
      <point x="496" y="517" type="line"/>
      <point x="496" y="401" type="line"/>
      <point x="455" y="474"/>
      <point x="382" y="528"/>
      <point x="290" y="528" type="curve" smooth="yes"/>
      <point x="154" y="528"/>
      <point x="44" y="404"/>
      <point x="44" y="258" type="curve" smooth="yes"/>
      <point x="44" y="121"/>
      <point x="145" y="-10"/>
    </contour>
    <contour>
      <point x="496" y="170" type="line"/>
      <point x="464" y="89"/>
      <point x="392" y="22"/>
      <point x="295" y="22" type="curve" smooth="yes"/>
      <point x="169" y="22"/>
      <point x="79" y="134"/>
      <point x="79" y="258" type="curve" smooth="yes"/>
      <point x="79" y="372"/>
      <point x="165" y="496"/>
      <point x="295" y="496" type="curve" smooth="yes"/>
      <point x="386" y="496"/>
      <point x="463" y="431"/>
      <point x="496" y="347" type="curve"/>
    </contour>
  </outline>
</glyph>
<glyph name="five.lnum" format="1">
  <advance width="552"/>
  <outline>
    <contour>
      <point x="277" y="447" type="curve" smooth="yes"/>
      <point x="210" y="447"/>
      <point x="147" y="421"/>
      <point x="103" y="373" type="curve"/>
      <point x="163" y="677" type="line"/>
      <point x="475" y="677" type="line"/>
      <point x="475" y="710" type="line"/>
      <point x="136" y="710" type="line"/>
      <point x="136" y="710"/>
      <point x="67" y="366"/>
      <point x="58" y="322" type="curve"/>
      <point x="93" y="322" type="line"/>
      <point x="135" y="382"/>
      <point x="204" y="415"/>
      <point x="275" y="415" type="curve" smooth="yes"/>
      <point x="386" y="415"/>
      <point x="473" y="335"/>
      <point x="473" y="222" type="curve" smooth="yes"/>
      <point x="473" y="104"/>
      <point x="383" y="22"/>
      <point x="270" y="22" type="curve" smooth="yes"/>
      <point x="184" y="22"/>
      <point x="109" y="71"/>
      <point x="73" y="143" type="curve"/>
      <point x="44" y="133" type="line"/>
      <point x="84" y="48"/>
      <point x="169" y="-10"/>
      <point x="269" y="-10" type="curve" smooth="yes"/>
      <point x="398" y="-10"/>
      <point x="508" y="83"/>
      <point x="508" y="222" type="curve" smooth="yes"/>
      <point x="508" y="354"/>
      <point x="404" y="447"/>
    </contour>
  </outline>
</glyph>
<glyph name="five.numerator" format="1">
  <advance width="365"/>
  <outline>
    <contour>
      <point x="183" y="587" type="curve" smooth="yes"/>
      <point x="142" y="587"/>
      <point x="105" y="575"/>
      <point x="79" y="551" type="curve"/>
      <point x="115" y="704" type="line"/>
      <point x="308" y="704" type="line"/>
      <point x="308" y="730" type="line"/>
      <point x="94" y="730" type="line"/>
      <point x="92" y="715"/>
      <point x="52" y="552"/>
      <point x="44" y="515" type="curve"/>
      <point x="71" y="515" type="line"/>
      <point x="94" y="544"/>
      <point x="135" y="563"/>
      <point x="179" y="563" type="curve" smooth="yes"/>
      <point x="240" y="563"/>
      <point x="302" y="528"/>
      <point x="302" y="464" type="curve" smooth="yes"/>
      <point x="302" y="405"/>
      <point x="248" y="362"/>
      <point x="178" y="362" type="curve" smooth="yes"/>
      <point x="125" y="362"/>
      <point x="79" y="387"/>
      <point x="56" y="425" type="curve"/>
      <point x="35" y="414" type="line"/>
      <point x="60" y="368"/>
      <point x="114" y="337"/>
      <point x="177" y="337" type="curve" smooth="yes"/>
      <point x="260" y="337"/>
      <point x="329" y="388"/>
      <point x="329" y="465" type="curve" smooth="yes"/>
      <point x="329" y="537"/>
      <point x="264" y="587"/>
    </contour>
  </outline>
</glyph>
<glyph name="nine.denominator" format="1">
  <advance width="394"/>
  <outline>
    <contour>
      <point x="35" y="258" type="curve" smooth="yes"/>
      <point x="35" y="332"/>
      <point x="104" y="391"/>
      <point x="191" y="391" type="curve" smooth="yes"/>
      <point x="283" y="391"/>
      <point x="351" y="331"/>
      <point x="351" y="232" type="curve" smooth="yes"/>
      <point x="351" y="70"/>
      <point x="285" y="-5"/>
      <point x="188" y="-5" type="curve" smooth="yes"/>
      <point x="129" y="-5"/>
      <point x="78" y="23"/>
      <point x="58" y="70" type="curve"/>
      <point x="77" y="85" type="line"/>
      <point x="93" y="46"/>
      <point x="138" y="20"/>
      <point x="189" y="20" type="curve" smooth="yes"/>
      <point x="269" y="20"/>
      <point x="324" y="87"/>
      <point x="324" y="204" type="curve"/>
      <point x="305" y="157"/>
      <point x="249" y="126"/>
      <point x="188" y="126" type="curve" smooth="yes"/>
      <point x="103" y="126"/>
      <point x="35" y="185"/>
    </contour>
    <contour>
      <point x="190" y="366" type="curve" smooth="yes"/>
      <point x="120" y="366"/>
      <point x="62" y="317"/>
      <point x="62" y="259" type="curve" smooth="yes"/>
      <point x="62" y="200"/>
      <point x="121" y="150"/>
      <point x="191" y="150" type="curve" smooth="yes"/>
      <point x="262" y="150"/>
      <point x="321" y="200"/>
      <point x="321" y="258" type="curve" smooth="yes"/>
      <point x="321" y="316"/>
      <point x="261" y="366"/>
    </contour>
  </outline>
</glyph>
<glyph name="q.alt" format="1">
  <advance width="607"/>
  <outline>
    <contour>
      <point x="284" y="-10" type="curve" smooth="yes"/>
      <point x="364" y="-10"/>
      <point x="436" y="34"/>
      <point x="492" y="116" type="curve"/>
      <point x="492" y="-213" type="line"/>
      <point x="526" y="-213" type="line"/>
      <point x="526" y="520" type="line"/>
      <point x="494" y="520" type="line"/>
      <point x="494" y="412" type="line"/>
      <point x="453" y="477"/>
      <point x="375" y="528"/>
      <point x="294" y="528" type="curve" smooth="yes"/>
      <point x="155" y="528"/>
      <point x="44" y="401"/>
      <point x="44" y="259" type="curve" smooth="yes"/>
      <point x="44" y="122"/>
      <point x="139" y="-10"/>
    </contour>
    <contour>
      <point x="290" y="22" type="curve" smooth="yes"/>
      <point x="167" y="22"/>
      <point x="79" y="133"/>
      <point x="79" y="258" type="curve" smooth="yes"/>
      <point x="79" y="376"/>
      <point x="169" y="496"/>
      <point x="297" y="496" type="curve" smooth="yes"/>
      <point x="382" y="496"/>
      <point x="482" y="424"/>
      <point x="492" y="344" type="curve"/>
      <point x="492" y="164" type="line"/>
      <point x="453" y="89"/>
      <point x="384" y="22"/>
    </contour>
  </outline>
</glyph>
<glyph name="three.denominator" format="1">
  <advance width="383"/>
  <outline>
    <contour>
      <point x="190" y="-5" type="curve" smooth="yes"/>
      <point x="273" y="-5"/>
      <point x="341" y="37"/>
      <point x="341" y="99" type="curve" smooth="yes"/>
      <point x="341" y="149"/>
      <point x="301" y="188"/>
      <point x="240" y="198" type="curve"/>
      <point x="299" y="211"/>
      <point x="329" y="240"/>
      <point x="329" y="286" type="curve" smooth="yes"/>
      <point x="329" y="346"/>
      <point x="267" y="393"/>
      <point x="183" y="393" type="curve" smooth="yes"/>
      <point x="121" y="393"/>
      <point x="67" y="367"/>
      <point x="45" y="328" type="curve"/>
      <point x="65" y="309" type="line"/>
      <point x="83" y="344"/>
      <point x="127" y="368"/>
      <point x="183" y="368" type="curve" smooth="yes"/>
      <point x="249" y="368"/>
      <point x="301" y="334"/>
      <point x="301" y="284" type="curve" smooth="yes"/>
      <point x="301" y="236"/>
      <point x="251" y="210"/>
      <point x="165" y="210" type="curve" smooth="yes"/>
      <point x="143" y="210" type="line"/>
      <point x="143" y="186" type="line"/>
      <point x="165" y="186" type="line" smooth="yes"/>
      <point x="254" y="186"/>
      <point x="314" y="153"/>
      <point x="314" y="102" type="curve" smooth="yes"/>
      <point x="314" y="55"/>
      <point x="260" y="21"/>
      <point x="190" y="21" type="curve" smooth="yes"/>
      <point x="117" y="21"/>
      <point x="62" y="61"/>
      <point x="58" y="102" type="curve"/>
      <point x="39" y="89" type="line"/>
      <point x="45" y="33"/>
      <point x="107" y="-5"/>
    </contour>
  </outline>
</glyph>
<glyph name="three.lnum" format="1">
  <advance width="583"/>
  <outline>
    <contour>
      <point x="292" y="-9" type="curve" smooth="yes"/>
      <point x="425" y="-9"/>
      <point x="530" y="70"/>
      <point x="530" y="180" type="curve" smooth="yes"/>
      <point x="530" y="269"/>
      <point x="466" y="342"/>
      <point x="368" y="361" type="curve"/>
      <point x="462" y="385"/>
      <point x="511" y="439"/>
      <point x="511" y="521" type="curve" smooth="yes"/>
      <point x="511" y="634"/>
      <point x="413" y="719"/>
      <point x="280" y="719" type="curve" smooth="yes"/>
      <point x="182" y="719"/>
      <point x="95" y="671"/>
      <point x="63" y="595" type="curve"/>
      <point x="89" y="576" type="line"/>
      <point x="116" y="642"/>
      <point x="190" y="687"/>
      <point x="281" y="687" type="curve" smooth="yes"/>
      <point x="392" y="687"/>
      <point x="476" y="618"/>
      <point x="476" y="521" type="curve" smooth="yes"/>
      <point x="476" y="426"/>
      <point x="397" y="376"/>
      <point x="256" y="376" type="curve" smooth="yes"/>
      <point x="221" y="376" type="line"/>
      <point x="221" y="345" type="line"/>
      <point x="256" y="345" type="line" smooth="yes"/>
      <point x="400" y="345"/>
      <point x="496" y="281"/>
      <point x="496" y="183" type="curve" smooth="yes"/>
      <point x="496" y="91"/>
      <point x="409" y="24"/>
      <point x="293" y="24" type="curve" smooth="yes"/>
      <point x="174" y="24"/>
      <point x="83" y="95"/>
      <point x="79" y="181" type="curve"/>
      <point x="52" y="170" type="line"/>
      <point x="59" y="67"/>
      <point x="160" y="-9"/>
    </contour>
  </outline>
</glyph>
<glyph name="three.numerator" format="1">
  <advance width="383"/>
  <outline>
    <contour>
      <point x="190" y="333" type="curve" smooth="yes"/>
      <point x="273" y="333"/>
      <point x="341" y="375"/>
      <point x="341" y="437" type="curve" smooth="yes"/>
      <point x="341" y="487"/>
      <point x="301" y="527"/>
      <point x="240" y="537" type="curve"/>
      <point x="299" y="549"/>
      <point x="329" y="579"/>
      <point x="329" y="624" type="curve" smooth="yes"/>
      <point x="329" y="685"/>
      <point x="267" y="731"/>
      <point x="183" y="731" type="curve" smooth="yes"/>
      <point x="121" y="731"/>
      <point x="67" y="706"/>
      <point x="45" y="666" type="curve"/>
      <point x="65" y="647" type="line"/>
      <point x="83" y="682"/>
      <point x="127" y="706"/>
      <point x="183" y="706" type="curve" smooth="yes"/>
      <point x="249" y="706"/>
      <point x="301" y="672"/>
      <point x="301" y="622" type="curve" smooth="yes"/>
      <point x="301" y="574"/>
      <point x="251" y="548"/>
      <point x="165" y="548" type="curve" smooth="yes"/>
      <point x="143" y="548" type="line"/>
      <point x="143" y="524" type="line"/>
      <point x="165" y="524" type="line" smooth="yes"/>
      <point x="254" y="524"/>
      <point x="314" y="492"/>
      <point x="314" y="441" type="curve" smooth="yes"/>
      <point x="314" y="393"/>
      <point x="260" y="360"/>
      <point x="190" y="360" type="curve" smooth="yes"/>
      <point x="117" y="360"/>
      <point x="62" y="399"/>
      <point x="58" y="440" type="curve"/>
      <point x="39" y="427" type="line"/>
      <point x="45" y="372"/>
      <point x="107" y="333"/>
    </contour>
  </outline>
</glyph>
